<?xml version="1.0" encoding="UTF-8" standalone="no"?>
<!-- Generator: Adobe Illustrator 16.0.0, SVG Export Plug-In . SVG Version: 6.00 Build 0)  -->

<svg
   xmlns:dc="http://purl.org/dc/elements/1.1/"
   xmlns:cc="http://creativecommons.org/ns#"
   xmlns:rdf="http://www.w3.org/1999/02/22-rdf-syntax-ns#"
   xmlns:svg="http://www.w3.org/2000/svg"
   xmlns="http://www.w3.org/2000/svg"
   xmlns:sodipodi="http://sodipodi.sourceforge.net/DTD/sodipodi-0.dtd"
   xmlns:inkscape="http://www.inkscape.org/namespaces/inkscape"
   version="1.1"
   id="Capa_1"
   x="0px"
   y="0px"
   width="35"
   height="35.000561"
   viewBox="0 0 34.999999 35.000561"
   xml:space="preserve"
   inkscape:version="0.91 r13725"
   sodipodi:docname="rss-feed-button.svg"><metadata
     id="metadata41"><rdf:RDF><cc:Work
         rdf:about=""><dc:format>image/svg+xml</dc:format><dc:type
           rdf:resource="http://purl.org/dc/dcmitype/StillImage" /><dc:title></dc:title></cc:Work></rdf:RDF></metadata><defs
     id="defs39" /><sodipodi:namedview
     pagecolor="#ffffff"
     bordercolor="#666666"
     borderopacity="1"
     objecttolerance="10"
     gridtolerance="10"
     guidetolerance="10"
     inkscape:pageopacity="0"
     inkscape:pageshadow="2"
     inkscape:window-width="1440"
     inkscape:window-height="897"
     id="namedview37"
     showgrid="false"
     inkscape:zoom="0.53815421"
     inkscape:cx="17.500005"
     inkscape:cy="17.50077"
     inkscape:window-x="-8"
     inkscape:window-y="-8"
     inkscape:window-maximized="1"
     inkscape:current-layer="Capa_1"
     fit-margin-top="0"
     fit-margin-left="0"
     fit-margin-right="0"
     fit-margin-bottom="0" /><g
     id="g3"
     transform="matrix(0.0798121,0,0,0.0798121,-2.394363e-4,0)"><path
       d="M 414.41,24.123 C 398.333,8.042 378.963,0 356.315,0 L 82.228,0 C 59.58,0 40.21,8.042 24.126,24.123 8.045,40.207 0.003,59.576 0.003,82.225 l 0,274.084 c 0,22.647 8.042,42.018 24.123,58.102 16.084,16.084 35.454,24.126 58.102,24.126 l 274.084,0 c 22.648,0 42.018,-8.042 58.095,-24.126 16.084,-16.084 24.126,-35.454 24.126,-58.102 l 0,-274.084 C 438.532,59.576 430.49,40.204 414.41,24.123 Z M 135.475,354.741 c -7.142,7.132 -15.752,10.704 -25.841,10.704 -10.085,0 -18.699,-3.572 -25.837,-10.704 -7.137,-7.139 -10.708,-15.756 -10.708,-25.844 0,-10.082 3.571,-18.699 10.708,-25.838 7.139,-7.139 15.752,-10.704 25.837,-10.704 10.089,0 18.702,3.565 25.841,10.704 7.135,7.139 10.706,15.756 10.706,25.838 0,10.088 -3.568,18.706 -10.706,25.844 z m 108.343,7.844 c -1.902,1.902 -4.093,2.847 -6.57,2.847 l -36.54,0 c -2.475,0 -4.567,-0.801 -6.28,-2.423 -1.714,-1.615 -2.667,-3.661 -2.856,-6.139 -2.093,-29.308 -13.608,-54.434 -34.546,-75.377 -20.937,-20.93 -46.059,-32.448 -75.374,-34.543 -2.474,-0.185 -4.521,-1.137 -6.136,-2.848 -1.619,-1.711 -2.428,-3.806 -2.428,-6.283 l 0,-36.543 c 0,-2.475 0.953,-4.665 2.855,-6.567 1.903,-1.903 4.187,-2.758 6.854,-2.57 44.158,2.474 81.843,19.323 113.058,50.537 31.217,31.221 48.064,68.898 50.535,113.062 0.194,2.665 -0.668,4.944 -2.572,6.847 z m 109.633,0 c -1.903,1.902 -4.087,2.854 -6.563,2.854 l -36.546,0 c -2.474,0 -4.568,-0.856 -6.279,-2.567 -1.711,-1.711 -2.663,-3.806 -2.854,-6.283 -1.334,-38.827 -11.946,-74.802 -31.833,-107.921 -19.89,-33.12 -46.394,-59.623 -79.514,-79.509 -33.12,-19.892 -69.09,-30.502 -107.921,-31.833 -2.474,-0.19 -4.567,-1.143 -6.28,-2.854 -1.711,-1.713 -2.568,-3.809 -2.568,-6.283 l 0,-36.545 c 0,-2.474 0.953,-4.661 2.855,-6.567 1.713,-1.903 3.9,-2.758 6.567,-2.565 29.309,0.95 57.624,6.276 84.936,15.987 27.312,9.704 52.056,22.98 74.235,39.825 22.176,16.842 41.686,36.354 58.525,58.529 16.841,22.175 30.122,46.921 39.831,74.23 9.702,27.315 15.037,55.631 15.984,84.938 0.381,2.669 -0.47,4.853 -2.575,6.564 z"
       id="path5"
       inkscape:connector-curvature="0" /></g><g
     id="g7"
     transform="matrix(0.24185485,0,0,0.24185485,-35.531029,-35.530869)" /><g
     id="g9"
     transform="matrix(0.24185485,0,0,0.24185485,-35.531029,-35.530869)" /><g
     id="g11"
     transform="matrix(0.24185485,0,0,0.24185485,-35.531029,-35.530869)" /><g
     id="g13"
     transform="matrix(0.24185485,0,0,0.24185485,-35.531029,-35.530869)" /><g
     id="g15"
     transform="matrix(0.24185485,0,0,0.24185485,-35.531029,-35.530869)" /><g
     id="g17"
     transform="matrix(0.24185485,0,0,0.24185485,-35.531029,-35.530869)" /><g
     id="g19"
     transform="matrix(0.24185485,0,0,0.24185485,-35.531029,-35.530869)" /><g
     id="g21"
     transform="matrix(0.24185485,0,0,0.24185485,-35.531029,-35.530869)" /><g
     id="g23"
     transform="matrix(0.24185485,0,0,0.24185485,-35.531029,-35.530869)" /><g
     id="g25"
     transform="matrix(0.24185485,0,0,0.24185485,-35.531029,-35.530869)" /><g
     id="g27"
     transform="matrix(0.24185485,0,0,0.24185485,-35.531029,-35.530869)" /><g
     id="g29"
     transform="matrix(0.24185485,0,0,0.24185485,-35.531029,-35.530869)" /><g
     id="g31"
     transform="matrix(0.24185485,0,0,0.24185485,-35.531029,-35.530869)" /><g
     id="g33"
     transform="matrix(0.24185485,0,0,0.24185485,-35.531029,-35.530869)" /><g
     id="g35"
     transform="matrix(0.24185485,0,0,0.24185485,-35.531029,-35.530869)" /></svg>